<?xml version="1.0" encoding="iso-8859-1"?>
<!-- Generator: Adobe Illustrator 19.2.0, SVG Export Plug-In . SVG Version: 6.00 Build 0)  -->
<svg xmlns="http://www.w3.org/2000/svg" xmlns:xlink="http://www.w3.org/1999/xlink" version="1.1" id="Layer_1" x="0px" y="0px" viewBox="0 0 40 40" style="enable-background:new 0 0 40 40;" xml:space="preserve">
<g>
	<path style="fill:#B6DCFE;" d="M6.364,35.5c-0.476,0-0.864-0.397-0.864-0.885V3.385C5.5,2.897,5.888,2.5,6.364,2.5H16.54   C16.513,2.668,16.5,2.834,16.5,3c0,1.93,1.57,3.5,3.5,3.5s3.5-1.57,3.5-3.5c0-0.166-0.013-0.332-0.04-0.5h10.176   c0.476,0,0.864,0.397,0.864,0.885v31.23c0,0.488-0.388,0.885-0.864,0.885H6.364z"/>
	<g>
		<path style="fill:#4788C7;" d="M33.636,3C33.837,3,34,3.173,34,3.385v31.231C34,34.827,33.837,35,33.636,35H6.364    C6.163,35,6,34.827,6,34.615V3.385C6,3.173,6.163,3,6.364,3H16c0,2.206,1.794,4,4,4s4-1.794,4-4H33.636 M33.636,2h-10.82    C22.928,2.314,23,2.647,23,3c0,1.657-1.343,3-3,3s-3-1.343-3-3c0-0.353,0.072-0.686,0.184-1H6.364C5.611,2,5,2.62,5,3.385v31.231    C5,35.38,5.611,36,6.364,36h27.273C34.389,36,35,35.38,35,34.615V3.385C35,2.62,34.389,2,33.636,2L33.636,2z"/>
	</g>
</g>
<g>
	<path style="fill:#98CCFD;" d="M15,7.5c-0.827,0-1.5-0.673-1.5-1.5V2.5h4.037l0.038-0.107C17.526,2.587,17.5,2.791,17.5,3   c0,1.378,1.122,2.5,2.5,2.5s2.5-1.122,2.5-2.5c0-0.209-0.026-0.413-0.075-0.607L22.463,2.5H26.5V6c0,0.827-0.673,1.5-1.5,1.5H15z    M19.993,0.5 M19.997,0.5c0.001,0,0.006,0,0.007,0C20.002,0.5,19.998,0.5,19.997,0.5z"/>
	<path style="fill:#4788C7;" d="M26,3v3c0,0.551-0.449,1-1,1H15c-0.551,0-1-0.449-1-1V3h3c0,1.654,1.346,3,3,3s3-1.346,3-3H26 M20,0   c-1.304,0-2.403,0.837-2.816,2H13v4c0,1.105,0.895,2,2,2h10c1.105,0,2-0.895,2-2V2h-4.184C22.403,0.837,21.304,0,20,0L20,0z M20,5   c-1.103,0-2-0.897-2-2s0.897-2,2-2s2,0.897,2,2S21.103,5,20,5L20,5z"/>
</g>
<g>
	<rect x="15" y="15" style="fill:#FFFFFF;" width="24" height="24"/>
</g>
<g>
	<path style="fill:#4788C7;" d="M23.5,39h-3c-0.275,0-0.5-0.225-0.5-0.5l0,0c0-0.275,0.225-0.5,0.5-0.5h3c0.275,0,0.5,0.225,0.5,0.5   l0,0C24,38.775,23.775,39,23.5,39z"/>
	<path style="fill:#4788C7;" d="M28.5,39h-3c-0.275,0-0.5-0.225-0.5-0.5l0,0c0-0.275,0.225-0.5,0.5-0.5h3c0.275,0,0.5,0.225,0.5,0.5   l0,0C29,38.775,28.775,39,28.5,39z"/>
	<path style="fill:#4788C7;" d="M33.5,39h-3c-0.275,0-0.5-0.225-0.5-0.5l0,0c0-0.275,0.225-0.5,0.5-0.5h3c0.275,0,0.5,0.225,0.5,0.5   l0,0C34,38.775,33.775,39,33.5,39z"/>
	<path style="fill:#4788C7;" d="M38.5,39h-3c-0.275,0-0.5-0.225-0.5-0.5l0,0c0-0.275,0.225-0.5,0.5-0.5h3c0.275,0,0.5,0.225,0.5,0.5   l0,0C39,38.775,38.775,39,38.5,39z"/>
	<path style="fill:#4788C7;" d="M23.5,16h-3c-0.275,0-0.5-0.225-0.5-0.5v0c0-0.275,0.225-0.5,0.5-0.5h3c0.275,0,0.5,0.225,0.5,0.5v0   C24,15.775,23.775,16,23.5,16z"/>
	<path style="fill:#4788C7;" d="M28.5,16h-3c-0.275,0-0.5-0.225-0.5-0.5v0c0-0.275,0.225-0.5,0.5-0.5h3c0.275,0,0.5,0.225,0.5,0.5v0   C29,15.775,28.775,16,28.5,16z"/>
	<path style="fill:#4788C7;" d="M33.5,16h-3c-0.275,0-0.5-0.225-0.5-0.5v0c0-0.275,0.225-0.5,0.5-0.5h3c0.275,0,0.5,0.225,0.5,0.5v0   C34,15.775,33.775,16,33.5,16z"/>
	<path style="fill:#4788C7;" d="M38,23.5v-3c0-0.275,0.225-0.5,0.5-0.5l0,0c0.275,0,0.5,0.225,0.5,0.5v3c0,0.275-0.225,0.5-0.5,0.5   l0,0C38.225,24,38,23.775,38,23.5z"/>
	<path style="fill:#4788C7;" d="M38,28.5v-3c0-0.275,0.225-0.5,0.5-0.5l0,0c0.275,0,0.5,0.225,0.5,0.5v3c0,0.275-0.225,0.5-0.5,0.5   l0,0C38.225,29,38,28.775,38,28.5z"/>
	<path style="fill:#4788C7;" d="M38,33.5v-3c0-0.275,0.225-0.5,0.5-0.5l0,0c0.275,0,0.5,0.225,0.5,0.5v3c0,0.275-0.225,0.5-0.5,0.5   l0,0C38.225,34,38,33.775,38,33.5z"/>
	<path style="fill:#4788C7;" d="M15,23.5v-3c0-0.275,0.225-0.5,0.5-0.5h0c0.275,0,0.5,0.225,0.5,0.5v3c0,0.275-0.225,0.5-0.5,0.5h0   C15.225,24,15,23.775,15,23.5z"/>
	<path style="fill:#4788C7;" d="M15,28.5v-3c0-0.275,0.225-0.5,0.5-0.5h0c0.275,0,0.5,0.225,0.5,0.5v3c0,0.275-0.225,0.5-0.5,0.5h0   C15.225,29,15,28.775,15,28.5z"/>
	<path style="fill:#4788C7;" d="M15,33.5v-3c0-0.275,0.225-0.5,0.5-0.5h0c0.275,0,0.5,0.225,0.5,0.5v3c0,0.275-0.225,0.5-0.5,0.5h0   C15.225,34,15,33.775,15,33.5z"/>
	<path style="fill:#4788C7;" d="M38,39v-3.5c0-0.276,0.224-0.5,0.5-0.5l0,0c0.275,0,0.5,0.225,0.5,0.5V39H38z"/>
	<path style="fill:#4788C7;" d="M39,15.5v3c0,0.275-0.225,0.5-0.5,0.5l0,0c-0.275,0-0.5-0.225-0.5-0.5v-3c0-0.275,0.225-0.5,0.5-0.5   l0,0C38.775,15,39,15.225,39,15.5z"/>
	<path style="fill:#4788C7;" d="M39,16h-3.5c-0.276,0-0.5-0.224-0.5-0.5v0c0-0.275,0.225-0.5,0.5-0.5H39V16z"/>
	<path style="fill:#4788C7;" d="M15.5,15h3c0.275,0,0.5,0.225,0.5,0.5v0c0,0.275-0.225,0.5-0.5,0.5h-3c-0.275,0-0.5-0.225-0.5-0.5v0   C15,15.225,15.225,15,15.5,15z"/>
	<path style="fill:#4788C7;" d="M16,15v3.5c0,0.276-0.224,0.5-0.5,0.5h0c-0.275,0-0.5-0.225-0.5-0.5V15H16z"/>
	<path style="fill:#4788C7;" d="M15,38.5v-3c0-0.275,0.225-0.5,0.5-0.5h0c0.275,0,0.5,0.225,0.5,0.5v3c0,0.275-0.225,0.5-0.5,0.5h0   C15.225,39,15,38.775,15,38.5z"/>
	<path style="fill:#4788C7;" d="M15,38h3.5c0.276,0,0.5,0.224,0.5,0.5l0,0c0,0.275-0.225,0.5-0.5,0.5H15V38z"/>
</g>
</svg>
