<?xml version="1.0" encoding="iso-8859-1"?>
<!-- Generator: Adobe Illustrator 19.0.0, SVG Export Plug-In . SVG Version: 6.00 Build 0)  -->
<svg version="1.1" id="Layer_1" xmlns="http://www.w3.org/2000/svg" xmlns:xlink="http://www.w3.org/1999/xlink" x="0px" y="0px"
	 viewBox="0 0 512.003 512.003" style="enable-background:new 0 0 512.003 512.003;" xml:space="preserve">
<g>
	
		<rect x="335.717" y="87.407" transform="matrix(0.7071 -0.7071 0.7071 0.7071 -11.4356 330.8482)" style="fill:#CEE8FA;" width="115.868" height="183.641"/>
	
		<rect x="60.422" y="87.404" transform="matrix(-0.7071 -0.7071 0.7071 -0.7071 75.3146 389.6467)" style="fill:#CEE8FA;" width="115.868" height="183.641"/>
</g>
<path style="fill:#2D527C;" d="M508.35,194.371L378.498,64.52c-4.866-4.867-12.758-4.867-17.625,0l-73.116,73.116l-14.389-14.387
	c-2.337-2.337-5.507-3.65-8.813-3.65s-6.476,1.314-8.813,3.65l-22.945,22.944l-81.67-81.67c-4.867-4.868-12.758-4.867-17.625,0
	L3.65,194.371C1.314,196.709,0,199.879,0,203.184c0,3.305,1.314,6.476,3.65,8.813l81.928,81.928c2.434,2.434,5.623,3.65,8.813,3.65
	c3.189,0,6.38-1.218,8.813-3.65l52.052-52.052l26.539,26.539c0.304,0.304,0.621,0.59,0.946,0.855
	c4.895,3.993,12.115,3.708,16.679-0.855l56.58-56.58l120.662,120.662l-13.04,13.04L260.127,242.039
	c-4.867-4.867-12.758-4.866-17.627,0c-0.304,0.304-0.59,0.621-0.855,0.947c-3.993,4.895-3.708,12.117,0.855,16.679l123.807,123.806
	l-13.04,13.04L229.461,272.704c-4.867-4.867-12.758-4.867-17.627,0c-4.867,4.867-4.867,12.758,0,17.626L315.33,393.826l-13.04,13.04
	l-7.669-7.669c-0.003-0.003-0.004-0.005-0.006-0.007l-95.821-95.82c-1.216-1.216-2.622-2.13-4.123-2.738
	c-1.501-0.608-3.095-0.912-4.69-0.912c-2.79,0-5.582,0.932-7.867,2.795c-0.327,0.267-0.642,0.551-0.947,0.855
	c-1.216,1.216-2.129,2.622-2.737,4.123c-0.304,0.75-0.532,1.524-0.684,2.309c-0.076,0.393-0.133,0.789-0.171,1.185
	c-0.343,3.574,0.855,7.27,3.593,10.008l43.504,43.504l43.504,43.504l-13.04,13.04L140.18,306.086
	c-4.867-4.867-12.758-4.867-17.627,0c-4.867,4.867-4.867,12.758,0,17.626l123.769,123.769c2.434,2.434,5.623,3.65,8.813,3.65
	c3.189,0,6.38-1.218,8.813-3.65L285.8,425.63l7.675,7.675c2.434,2.434,5.623,3.65,8.813,3.65s6.38-1.216,8.813-3.65l21.853-21.853
	l11.498,11.498c2.434,2.433,5.623,3.65,8.813,3.65s6.38-1.218,8.813-3.65l30.665-30.665c4.867-4.867,4.867-12.758,0-17.627
	l-11.498-11.498l21.853-21.853c4.867-4.867,4.867-12.758,0-17.627L264.814,185.394c-4.867-4.867-12.758-4.867-17.627,0
	l-56.579,56.58l-9.17-9.17l83.119-83.119l14.387,14.387l0.001,0.001l3.157,3.157l0.437,0.437l0,0l126.258,126.257
	c2.433,2.434,5.623,3.65,8.813,3.65c3.189,0,6.38-1.216,8.813-3.65l81.928-81.928c2.337-2.337,3.65-5.507,3.65-8.813
	C512.003,199.879,510.688,196.709,508.35,194.371z M94.391,267.488l-64.303-64.303L142.314,90.959l64.303,64.303L94.391,267.488z
	 M417.609,267.488L305.382,155.262l64.303-64.303l112.226,112.226L417.609,267.488z"/>
<g>
</g>
<g>
</g>
<g>
</g>
<g>
</g>
<g>
</g>
<g>
</g>
<g>
</g>
<g>
</g>
<g>
</g>
<g>
</g>
<g>
</g>
<g>
</g>
<g>
</g>
<g>
</g>
<g>
</g>
</svg>
